<?xml version="1.0" encoding="utf-8"?>
<!-- Generator: Adobe Illustrator 19.0.0, SVG Export Plug-In . SVG Version: 6.00 Build 0)  -->
<svg version="1.1" id="Layer_1" xmlns="http://www.w3.org/2000/svg" xmlns:xlink="http://www.w3.org/1999/xlink" x="0px" y="0px"
	 viewBox="0 0 595.3 595.3" style="enable-background:new 0 0 595.3 595.3;" xml:space="preserve">
<style type="text/css">
	.st0{fill-rule:evenodd;clip-rule:evenodd;fill:#FFFFFF;}
</style>
<path id="XMLID_2_" class="st0" d="M333.2,585.2V544v-13.5V313.7v-5.4V273h146.3v40.7H368.4v208.7c95.8-30,165.3-119.3,165.3-225
	c0-127.5-101.2-231.3-227.6-235.6V7.6C462.5,12,588,140,588,297.4C588,445.6,476.7,567.8,333.2,585.2z M62.2,297.4
	c0,107.6,72.2,198.3,170.7,226.6V313.7H121.8V273h146.3v29.8v10.8v217.6v7.4v47.3C122,571,8,447.5,8,297.4
	C8,138.2,136.4,9,295.3,7.5v54.2C166.3,63.2,62.2,168.1,62.2,297.4z M121.8,224.2h357.7v40.7H322.4v267v14.8v39.6
	c-8,0.7-16.2,1.1-24.4,1.1c-6.4,0-12.7-0.3-19-0.7v-40v-14.4V264.9H121.8V224.2z"/>
</svg>
